<?xml version="1.0" standalone="no"?>
<!DOCTYPE svg PUBLIC "-//W3C//DTD SVG 20010904//EN"
 "http://www.w3.org/TR/2001/REC-SVG-20010904/DTD/svg10.dtd">
<svg version="1.0" xmlns="http://www.w3.org/2000/svg"
 width="576.000000pt" height="600.000000pt" viewBox="0 0 576.000000 600.000000"
 preserveAspectRatio="xMidYMid meet">

<g transform="translate(0.000000,600.000000) scale(0.100000,-0.100000)"
fill="#000000" stroke="none">
<path d="M1003 5783 c9 -2 25 -2 35 0 9 3 1 5 -18 5 -19 0 -27 -2 -17 -5z"/>
<path d="M978 5754 c-53 -28 -63 -81 -22 -113 33 -26 80 -27 121 -1 97 59 2
169 -99 114z m38 -25 c10 -17 -13 -36 -27 -22 -12 12 -4 33 11 33 5 0 12 -5
16 -11z"/>
<path d="M1140 5701 c0 -45 -58 -91 -116 -91 -57 0 -102 23 -118 61 l-12 29
-82 -40 c-45 -21 -82 -44 -82 -50 0 -14 88 -12 131 4 33 11 39 11 60 -6 66
-50 154 -43 214 19 l35 36 70 -7 c65 -7 146 -24 195 -42 15 -5 13 -1 -7 15
-37 30 -130 70 -192 82 -28 5 -61 12 -73 15 -20 4 -23 0 -23 -25z"/>
<path d="M525 5669 c-44 -15 -75 -28 -69 -28 6 -1 37 8 69 19 32 11 60 18 62
16 3 -2 -14 -23 -36 -45 l-41 -41 25 -10 c36 -14 53 -12 62 4 7 12 17 13 52 5
24 -5 49 -8 55 -6 6 2 -20 10 -59 17 -38 7 -73 15 -78 17 -4 2 5 20 19 39 15
19 25 36 23 38 -2 2 -40 -9 -84 -25z"/>
<path d="M265 5585 c-39 -17 -21 -18 25 0 19 7 28 14 20 14 -8 0 -28 -6 -45
-14z"/>
<path d="M185 5555 c-25 -12 -26 -14 -5 -9 28 7 60 23 45 23 -5 0 -23 -6 -40
-14z"/>
<path d="M408 5529 c-130 -8 -309 -30 -353 -44 -11 -3 0 5 25 19 25 14 41 25
35 25 -5 0 -35 -13 -65 -30 l-55 -30 79 6 c43 3 104 6 135 6 49 1 52 2 21 9
-19 3 48 6 150 5 165 -2 171 -2 55 4 l-130 6 115 7 c63 5 140 7 170 7 50 -2
52 -2 20 -9 -30 -6 -31 -8 -9 -9 42 -2 161 -133 189 -207 42 -114 54 -190 53
-364 0 -153 -7 -226 -49 -482 l-5 -33 18 25 c41 57 90 104 122 117 19 8 107
30 195 48 249 50 264 61 252 183 -10 92 -79 359 -109 418 -30 60 -100 133
-172 179 -56 37 -248 116 -340 140 -63 16 -130 17 -347 4z"/>
<path d="M2576 4728 c-20 -77 8 -248 58 -347 30 -58 32 -68 11 -51 -24 20 -17
-1 20 -63 41 -68 43 -81 13 -71 -22 6 -22 6 -5 -19 22 -33 21 -36 -2 -30 -18
5 -19 2 -10 -38 14 -62 65 -186 99 -241 16 -27 28 -48 26 -48 -2 0 -30 18 -63
39 -61 41 -279 141 -307 141 -8 0 -80 18 -158 40 -122 34 -292 70 -335 70 -7
0 -13 -9 -13 -21 0 -19 -2 -19 -37 7 -21 15 -48 39 -60 53 l-23 26 0 -35 c-1
-35 -1 -35 -17 -12 -22 31 -31 28 -52 -20 l-19 -43 -7 43 c-4 23 -11 42 -14
42 -4 0 -15 -14 -26 -32 l-18 -32 -16 32 c-18 40 -27 40 -35 1 -7 -36 -22 -31
-31 11 -10 45 -24 36 -27 -17 l-3 -48 -34 55 -34 55 -9 -33 c-9 -34 -15 -34
-51 -3 -17 15 -18 14 -12 -14 l7 -30 -32 35 -31 35 6 -40 c6 -37 5 -39 -9 -21
-9 11 -16 29 -16 41 0 30 -11 38 -26 17 -11 -15 -14 -14 -28 18 -8 19 -15 28
-16 20 0 -8 -9 -33 -21 -54 -15 -29 -19 -48 -14 -74 9 -46 48 -125 92 -183
l34 -45 67 9 c91 12 175 41 247 85 57 35 66 37 165 43 96 5 111 9 181 44 l77
38 68 -28 c45 -18 95 -29 142 -33 85 -6 107 -22 30 -22 -59 0 -107 11 -186 42
-51 20 -55 20 -88 4 -19 -9 -32 -21 -29 -26 9 -15 132 -50 179 -51 40 -1 40
-1 11 -10 -38 -11 -83 -3 -162 28 -59 23 -65 23 -105 9 l-43 -14 48 -22 c26
-11 70 -24 98 -27 33 -4 47 -9 40 -16 -14 -14 -111 7 -173 38 -43 22 -62 25
-122 23 l-71 -3 55 -26 c30 -15 84 -35 120 -44 63 -17 99 -35 71 -35 -29 0
-139 33 -199 61 l-64 29 -39 -23 c-21 -12 -39 -25 -39 -28 0 -14 99 -52 165
-64 56 -9 65 -13 44 -18 -33 -8 -129 16 -192 49 -46 24 -48 24 -97 8 -27 -9
-47 -20 -44 -25 11 -18 85 -49 129 -56 25 -3 48 -10 52 -16 9 -15 -94 1 -131
20 -17 9 -43 25 -57 36 -22 16 -36 18 -78 12 l-51 -7 27 -33 c16 -17 42 -40
58 -49 17 -9 47 -32 68 -51 21 -19 47 -40 59 -46 17 -9 168 -114 203 -141 6
-4 42 -29 80 -54 39 -26 72 -50 75 -54 8 -11 311 -209 430 -280 214 -128 535
-281 1074 -511 43 -19 83 -41 87 -49 4 -8 20 -43 35 -78 15 -35 38 -72 52 -83
31 -24 39 -18 18 13 -17 26 -48 120 -41 126 8 8 25 -10 25 -28 0 -22 57 -132
73 -142 14 -9 55 0 84 19 20 14 22 12 32 -34 6 -26 14 -59 18 -73 7 -25 6 -25
-20 -7 -88 56 -83 59 -42 -24 21 -41 41 -76 46 -79 4 -3 27 -35 50 -70 157
-244 588 -736 1079 -1234 162 -164 364 -360 449 -434 84 -75 148 -138 142
-140 -27 -9 -494 435 -825 783 -419 442 -811 906 -880 1043 -16 31 -35 53 -57
63 -19 9 -55 36 -81 59 l-48 42 -1 -49 c-1 -89 -11 -91 -54 -11 l-39 73 -9
-35 c-15 -57 -16 -60 -25 -60 -13 0 -32 47 -32 78 l0 27 -20 -25 -20 -25 -40
43 c-21 24 -43 41 -48 38 -5 -3 -15 -19 -21 -35 -12 -28 -9 -33 116 -190 343
-430 993 -1151 1374 -1526 365 -359 578 -522 743 -570 115 -34 191 5 207 105
19 121 -27 209 -210 407 -75 82 -483 528 -905 993 -423 465 -793 871 -823 902
l-55 58 33 -7 c19 -5 54 -8 79 -8 57 0 61 17 25 92 -34 67 -102 152 -211 260
l-83 81 -40 129 c-22 70 -78 265 -125 433 -83 301 -137 466 -191 585 -63 141
-189 328 -299 443 -42 45 -180 162 -190 162 -3 0 -38 21 -77 46 -92 59 -95 60
-103 32z m248 -147 c33 -27 82 -71 107 -98 41 -43 48 -56 59 -118 40 -225 182
-621 360 -1001 96 -205 37 -98 -117 212 -87 174 -164 319 -172 322 -24 9 -43
-29 -36 -73 15 -95 120 -355 207 -514 48 -87 37 -86 -26 2 -154 216 -259 540
-273 840 -3 70 -9 127 -13 127 -8 0 -93 -105 -145 -180 l-38 -55 6 50 c3 29
25 91 52 148 62 131 69 190 28 266 -29 56 -53 76 -53 45 0 -21 -40 -107 -47
-100 -5 5 29 176 35 176 2 0 32 -22 66 -49z m-1374 -575 c-19 -24 -77 -38
-120 -31 -61 10 -60 26 2 20 37 -4 61 -1 78 9 35 20 56 21 40 2z m248 2 c-11
-32 -133 -47 -161 -19 -6 6 9 8 44 5 37 -3 62 0 79 10 32 18 43 19 38 4z m657
-54 c-49 -14 -109 -36 -132 -50 -61 -36 -58 -59 15 -105 85 -55 120 -71 328
-149 341 -129 473 -203 614 -345 41 -41 71 -75 67 -75 -3 0 -30 15 -59 33
-104 66 -546 284 -708 349 -193 78 -365 112 -615 124 -77 4 -149 10 -160 15
-20 8 -20 8 0 8 12 1 113 33 225 72 265 92 447 148 485 148 18 0 -7 -11 -60
-25z m-791 -7 c-7 -20 -64 -47 -97 -47 -34 0 -77 17 -77 30 0 7 7 7 21 -1 31
-16 107 -5 132 20 23 23 31 22 21 -2z m1861 -1105 c415 -336 421 -350 15 -38
-304 234 -627 499 -765 630 -55 52 292 -222 750 -592z m-1003 505 c153 -117
281 -185 501 -268 48 -18 87 -36 87 -41 0 -13 -9 -10 -116 30 -206 79 -304
132 -476 255 -48 34 -87 68 -87 75 -1 6 1 12 4 12 3 0 42 -28 87 -63z m214 29
c44 -41 178 -122 216 -131 15 -4 33 -14 39 -22 11 -12 8 -13 -17 -7 -39 9
-137 59 -183 92 -65 48 -111 87 -111 95 0 15 20 6 56 -27z m-102 -9 c92 -74
350 -217 392 -217 13 0 26 -4 29 -10 4 -6 -6 -10 -23 -10 -57 0 -334 153 -432
239 -47 41 -18 40 34 -2z m-209 -56 c10 -18 229 -148 341 -205 125 -62 189
-89 284 -118 77 -24 105 -44 46 -33 -68 12 -206 66 -341 134 -156 80 -354 201
-355 219 0 14 16 16 25 3z m42 -114 c195 -126 461 -260 691 -348 13 -5 21 -13
17 -18 -10 -17 -353 136 -537 239 -176 99 -307 190 -273 190 2 0 48 -28 102
-63z m2368 -1807 c483 -531 898 -990 922 -1020 39 -50 88 -152 81 -170 -6 -15
-1913 2088 -1924 2122 -6 18 -15 49 -19 68 l-7 35 35 -35 c19 -19 430 -469
912 -1000z m-876 325 c597 -679 1194 -1275 1516 -1514 111 -82 132 -96 220
-143 l70 -37 -50 0 c-156 0 -348 137 -788 561 -377 363 -821 856 -1369 1518
-138 166 -145 176 -131 197 14 21 21 14 221 -220 113 -133 253 -296 311 -362z"/>
<path d="M2407 2621 c6 -7 9 -20 6 -27 -3 -8 -3 -14 0 -14 14 0 14 30 -1 41
-14 11 -15 11 -5 0z"/>
<path d="M2440 2561 c6 -21 5 -84 -1 -175 -12 -151 -8 -599 5 -628 12 -26 135
-61 341 -97 99 -18 188 -34 198 -37 26 -8 20 -33 -10 -45 -22 -8 -38 -6 -78
10 -103 42 -221 62 -405 68 -203 6 -290 -6 -460 -64 l-104 -35 -18 22 c-10 13
-17 25 -15 27 15 15 131 44 227 58 169 23 180 25 180 34 0 22 -239 92 -447
131 -112 22 -122 26 -128 48 -11 44 -35 48 309 -53 127 -37 253 -69 281 -72
49 -5 52 -4 63 23 8 20 13 146 14 391 3 344 4 361 21 346 9 -9 17 -12 17 -6 0
5 -11 16 -25 23 -13 7 -22 17 -19 21 2 4 0 10 -5 13 -5 4 -7 -67 -3 -175 l5
-182 -39 -34 -39 -34 33 6 c31 6 32 6 32 -29 0 -33 -2 -36 -22 -31 -123 28
-166 26 -239 -9 -35 -16 -91 -66 -75 -66 4 0 39 10 78 21 59 18 76 20 108 10
23 -7 40 -19 43 -31 4 -17 14 -20 56 -20 l51 0 0 -67 0 -67 -32 32 c-47 45
-162 102 -206 102 -38 0 -154 -49 -167 -70 -6 -10 8 -11 63 -6 87 9 138 -4
201 -49 45 -33 80 -79 69 -90 -3 -3 -108 24 -234 61 -453 131 -444 130 -534
88 -59 -27 -160 -99 -160 -113 0 -5 24 4 54 20 78 42 148 53 216 33 30 -8 136
-33 235 -54 171 -37 382 -97 373 -105 -2 -3 -56 -12 -119 -20 -63 -9 -147 -27
-187 -41 -40 -13 -87 -24 -105 -24 -69 0 -187 -96 -203 -165 l-7 -30 44 42
c65 63 128 87 203 79 49 -5 72 -2 116 15 179 69 394 99 579 80 115 -12 271
-46 314 -68 15 -7 44 -13 65 -13 87 2 116 -1 143 -16 31 -16 104 -101 114
-134 12 -38 28 -22 21 21 -9 54 -37 107 -78 146 -37 36 -105 55 -343 98 -232
42 -361 77 -325 88 77 26 107 31 185 30 67 0 128 -9 240 -36 83 -19 186 -41
230 -48 44 -6 92 -19 108 -28 27 -15 60 -59 87 -116 l14 -30 4 28 c10 78 -73
197 -137 197 -16 0 -47 7 -70 15 -23 8 -81 24 -129 35 -102 24 -137 36 -176
63 -28 20 -29 21 -23 92 4 39 29 184 57 321 l50 249 -27 22 c-16 13 -31 23
-35 23 -10 0 -12 -11 -64 -317 -27 -156 -51 -283 -54 -283 -3 1 -21 26 -40 56
-40 64 -54 76 -169 135 l-83 44 8 145 c10 188 10 199 -9 218 -16 15 -16 14 -7
-17z m460 -29 c0 -4 -22 -117 -50 -252 -27 -135 -53 -279 -56 -320 l-7 -76 39
-26 c43 -29 102 -49 214 -74 81 -18 110 -29 110 -44 0 -17 -38 -11 -223 30
-198 44 -315 52 -403 25 -64 -19 -64 -19 -64 9 0 22 6 25 63 35 35 6 85 11
110 11 26 0 47 4 47 9 0 13 -66 55 -152 97 -54 27 -78 44 -78 56 0 16 9 14 68
-16 37 -19 93 -53 125 -74 63 -43 93 -45 107 -8 5 11 32 161 61 333 49 290 54
311 71 302 10 -5 18 -13 18 -17z m-405 -354 c25 -11 33 -32 15 -43 -13 -8 -60
24 -60 41 0 17 11 18 45 2z m-9 -59 c10 -11 32 -26 49 -33 41 -17 91 -69 99
-102 4 -14 5 -28 3 -31 -3 -2 -26 9 -53 25 -27 17 -69 40 -94 54 -41 21 -45
27 -48 66 -4 48 12 56 44 21z m126 -11 c77 -54 150 -199 101 -198 -30 1 -51
24 -59 65 -7 40 -50 92 -103 126 -15 9 -22 20 -17 28 9 14 40 6 78 -21z m-329
-24 c13 -5 12 -9 -4 -25 -16 -16 -23 -17 -41 -8 -20 11 -98 8 -143 -5 -11 -4
3 5 30 19 48 24 123 33 158 19z m82 -24 c3 -6 3 -19 0 -30 -5 -16 -15 -20 -46
-20 -45 0 -52 19 -17 44 26 18 54 21 63 6z m-169 -101 c8 -6 14 -22 14 -34 0
-22 -1 -22 -37 -9 -21 7 -67 13 -103 14 -54 0 -62 2 -45 12 64 37 138 45 171
17z m355 -35 c49 -25 89 -50 89 -55 0 -5 -22 -9 -49 -9 -26 0 -69 -3 -95 -6
l-46 -7 0 62 c0 33 3 61 6 61 3 0 46 -21 95 -46z m-857 5 c2 -2 6 -19 10 -38
5 -29 4 -32 -12 -26 -49 22 -114 29 -164 18 -29 -6 -55 -9 -56 -8 -5 4 75 45
108 56 23 8 107 6 114 -2z m630 -59 c27 -30 36 -49 34 -68 -4 -40 -31 -39 -51
2 -9 19 -30 45 -47 57 -21 16 -30 31 -30 51 0 28 0 28 28 14 16 -8 45 -33 66
-56z m940 -150 c32 -29 73 -97 63 -106 -3 -3 -14 11 -26 30 -20 32 -89 76
-119 76 -13 0 -16 13 -5 23 15 16 55 5 87 -23z m-1384 -129 c15 -30 14 -31
-40 -31 -59 0 -102 -16 -149 -56 -28 -23 -32 -25 -23 -7 25 47 129 112 179
113 12 0 27 -9 33 -19z m1218 5 c34 -18 75 -62 96 -103 28 -55 17 -57 -25 -3
-39 50 -102 89 -141 90 -11 0 -15 5 -12 15 8 19 47 19 82 1z"/>
</g>
</svg>
